<svg width="522" height="496" viewBox="0 0 522 496" fill="none" xmlns="http://www.w3.org/2000/svg">
<path d="M310.2 185.09V252.66H374.16C379.08 252.66 381.54 257.32 381.54 261.98L371.7 306.25C371.7 308.58 366.78 310.91 364.32 310.91H310.2V481H236.4V313.24H194.58C189.66 313.24 187.2 310.91 187.2 306.25V261.98C187.2 257.32 189.66 254.99 194.58 254.99H236.4V178.1C236.4 138.49 268.38 108.2 310.2 108.2H376.62C381.54 108.2 384 110.53 384 115.19V171.11C384 175.77 381.54 178.1 376.62 178.1H317.58C312.66 178.1 310.2 180.43 310.2 185.09Z" stroke="#17191C" stroke-width="30" stroke-miterlimit="10" stroke-linecap="round"/>
<path d="M334.8 481H187.2C64.2 481 15 434.4 15 317.9V178.1C15 61.6 64.2 15 187.2 15H334.8C457.8 15 507 61.6 507 178.1V317.9C507 434.4 457.8 481 334.8 481Z" stroke="#17191C" stroke-width="30" stroke-linecap="round" stroke-linejoin="round"/>
</svg>
