<svg width="515" height="496" viewBox="0 0 515 496" fill="none" xmlns="http://www.w3.org/2000/svg">
<path d="M184.75 481H330.25C451.5 481 500 434.4 500 317.9V178.1C500 61.6 451.5 15 330.25 15H184.75C63.5 15 15 61.6 15 178.1V317.9C15 434.4 63.5 481 184.75 481Z" stroke="#292D32" stroke-width="30" stroke-linecap="round" stroke-linejoin="round"/>
<path d="M257.5 329.55C304.375 329.55 342.375 293.039 342.375 248C342.375 202.961 304.375 166.45 257.5 166.45C210.625 166.45 172.625 202.961 172.625 248C172.625 293.039 210.625 329.55 257.5 329.55Z" stroke="#292D32" stroke-width="30" stroke-linecap="round" stroke-linejoin="round"/>
<path d="M394.176 131.5H394.457" stroke="#292D32" stroke-width="30" stroke-linecap="round" stroke-linejoin="round"/>
</svg>
