<svg width="558" height="416" viewBox="0 0 558 416" fill="none" xmlns="http://www.w3.org/2000/svg">
<path d="M408.767 416H149.233C59.9526 416 0 361.088 0 279.314V136.686C0 54.912 59.9526 0 149.233 0H408.767C498.047 0 558 54.912 558 136.686V279.314C558 361.088 498.047 416 408.767 416ZM149.233 35.6571C82.2726 35.6571 38.9302 75.3554 38.9302 136.686V279.314C38.9302 340.645 82.2726 380.343 149.233 380.343H408.767C475.727 380.343 519.07 340.645 519.07 279.314V136.686C519.07 75.3554 475.727 35.6571 408.767 35.6571H149.233Z" fill="black"/>
<path d="M242.398 291.918C234.872 291.918 227.605 290.254 221.115 286.926C206.062 279.082 197.237 263.155 197.237 243.425V173.061C197.237 153.331 205.803 137.405 221.115 129.56C236.169 121.716 255.632 123.141 274.059 133.363L338.167 168.545C355.815 178.291 365.934 192.791 365.934 208.243C365.934 223.694 355.815 238.195 338.167 247.941L274.059 283.123C263.418 288.828 252.52 291.918 242.398 291.918ZM242.398 159.75C241.36 159.75 240.579 159.987 240.06 160.225C238.243 161.175 236.167 165.454 236.167 172.823V243.187C236.167 250.318 238.243 254.597 240.06 255.786C242.136 256.737 247.07 256.261 253.818 252.458L317.92 217.276C324.409 213.71 326.747 210.145 326.747 208.005C326.747 205.866 324.409 202.538 317.92 198.734L253.818 163.553C249.146 160.938 244.994 159.75 242.398 159.75Z" fill="black"/>
</svg>
